<?xml version="1.0" encoding="utf-8"?>
<svg width="75" height="38" viewBox="0 0 75 38" xmlns="http://www.w3.org/2000/svg">
<path  d="M 44.809 6.002 C 43.701 6.082 42.78 8.007 43.84 9.378 L 49.966 17.053 L 37.551 17.053 C 37.162 17.053 36.79 17.26 36.514 17.626 C 35.493 18.987 34.357 20.502 33.261 21.957 L 26.973 11.914 C 26.686 11.458 26.259 11.199 25.814 11.216 C 25.438 11.225 25.082 11.429 24.815 11.781 L 20.427 17.623 C 20.149 17.998 19.993 18.503 20.001 19.03 C 20.017 20.528 21.245 21.443 22.212 20.673 C 22.315 20.592 22.411 20.491 22.495 20.379 L 25.752 16.044 L 32.04 26.088 C 32.591 26.968 33.59 27.029 34.198 26.216 C 35.437 24.561 36.87 22.662 38.156 20.948 L 49.963 20.948 L 43.84 28.623 C 42.425 30.45 44.533 33.258 45.907 31.376 L 54.558 20.531 C 54.688 20.398 54.802 20.233 54.891 20.052 C 54.899 20.029 54.907 20.01 54.918 19.987 C 54.936 19.942 54.955 19.896 54.971 19.852 C 54.981 19.829 54.99 19.809 54.998 19.786 C 54.998 19.783 55 19.783 55 19.78 C 55.042 19.67 55.071 19.557 55.094 19.447 C 55.094 19.441 55.096 19.441 55.096 19.438 C 55.096 19.438 55.096 19.43 55.096 19.43 C 55.098 19.421 55.098 19.412 55.101 19.401 L 55.101 18.6 C 55.098 18.59 55.098 18.58 55.096 18.57 C 55.096 18.57 55.096 18.564 55.096 18.564 C 55.096 18.558 55.094 18.558 55.094 18.554 C 55.071 18.445 55.042 18.331 55 18.221 C 55 18.221 54.998 18.218 54.998 18.218 C 54.987 18.189 54.977 18.159 54.964 18.13 C 54.95 18.089 54.931 18.046 54.915 18.005 C 54.905 17.982 54.893 17.962 54.883 17.94 C 54.793 17.755 54.68 17.591 54.551 17.458 C 54.551 17.458 54.551 17.458 54.551 17.458 L 45.91 6.626 C 45.568 6.154 45.175 5.976 44.809 6.002 Z" fill="#2187D0"/>
</svg>